<svg width="176" height="45" viewBox="0 0 176 45" fill="none" xmlns="http://www.w3.org/2000/svg">
<path d="M126.901 34.0497V25.274C126.901 22.7994 125.827 21.7275 123.353 21.7275H116.63C114.762 21.7275 113.829 22.7553 113.829 24.7623C113.829 26.7693 114.762 27.8434 116.63 27.8434H120.225C120.225 27.8434 126.901 26.9546 126.901 34.052V34.0497Z" fill="url(#paint0_linear_325_1717)"/>
<path d="M120.228 27.8412V32.9293C120.228 32.9293 120.685 39.3915 116.053 39.5503C116.184 39.5525 116.314 39.5569 116.446 39.5569C119.247 39.5569 122.233 38.9967 124.055 38.2027C126.342 37.2213 126.902 36.0082 126.902 34.0475C126.902 26.9502 120.226 27.839 120.226 27.839L120.228 27.8412Z" fill="url(#paint1_linear_325_1717)"/>
<path d="M108.369 23.8734C108.369 17.6186 111.589 14.6301 116.304 14.6301C117.985 14.6301 119.573 15.0028 120.925 15.7505C121.904 16.3107 122.559 16.7782 123.353 16.7782C124.941 16.7782 126.48 14.8639 126.48 13.3707C126.48 12.204 125.501 11.0836 123.913 10.197C121.765 8.98396 119.059 8.37524 116.212 8.37524C106.115 8.37524 108.369 23.8734 108.369 23.8734Z" fill="url(#paint2_linear_325_1717)"/>
<path d="M92.4665 39.5569C94.8462 39.5569 96.013 38.624 96.013 36.7559V11.5491C96.013 11.5491 88.9178 13.3311 88.9178 18.6442V36.7559C88.9178 38.624 90.0845 39.5569 92.4665 39.5569Z" fill="url(#paint3_linear_325_1717)"/>
<path d="M96.013 11.5512C96.013 9.68318 94.8462 8.75024 92.4665 8.75024C90.0867 8.75024 88.9178 9.68318 88.9178 11.5512V18.6464C88.9178 13.3333 96.013 11.5512 96.013 11.5512Z" fill="url(#paint4_linear_325_1717)"/>
<path d="M135.525 39.5569C137.904 39.5569 139.071 38.624 139.071 36.7559V11.5491C139.071 11.5491 131.976 13.3311 131.976 18.6442V36.7559C131.976 38.624 133.143 39.5569 135.525 39.5569Z" fill="url(#paint5_linear_325_1717)"/>
<path d="M139.075 11.5512C139.075 9.68318 137.908 8.75024 135.528 8.75024C133.148 8.75024 131.979 9.68318 131.979 11.5512V18.6464C131.979 13.3333 139.075 11.5512 139.075 11.5512Z" fill="url(#paint6_linear_325_1717)"/>
<path d="M144.15 12.5306V36.7581C144.15 38.6262 145.224 39.5591 147.37 39.5591C149.516 39.5591 150.59 38.6262 150.59 36.7581V17.7598C150.59 17.7598 145.857 9.74499 144.148 12.5328L144.15 12.5306Z" fill="url(#paint7_linear_325_1717)"/>
<path d="M164.507 30.2231L154.19 11.7387C153.116 9.82433 151.577 8.75024 148.729 8.75024C145.741 8.75024 144.155 9.96328 144.155 12.5305C145.864 9.74273 150.597 17.7576 150.597 17.7576L161.38 36.4758C165.017 40.4016 164.507 30.2209 164.507 30.2209V30.2231Z" fill="url(#paint8_linear_325_1717)"/>
<path d="M167.728 8.75024C165.58 8.75024 164.508 9.68318 164.508 11.5512V30.2231C164.508 30.2231 165.017 40.4038 161.38 36.478C162.547 38.5313 163.901 39.5591 166.561 39.5591C169.501 39.5591 170.948 38.2997 170.948 35.7788V11.5512C170.948 9.68318 169.874 8.75024 167.728 8.75024Z" fill="url(#paint9_linear_325_1717)"/>
<path d="M49.4656 26.745C48.6231 31.0259 45.8618 33.3969 42.0374 33.3969C37.4168 33.3969 34.3357 29.943 34.3357 23.8271C34.3357 23.8271 33.8593 8.09741 42.0374 8.09741C32.9352 8.09741 27.0531 14.1185 27.0531 23.8271C27.0531 33.5358 32.9352 39.5591 42.0374 39.5591C47.1255 39.5591 48.8833 31.2928 49.4656 26.745Z" fill="url(#paint10_linear_325_1717)"/>
<path d="M42.0372 8.09741C33.8591 8.09741 34.3355 23.8271 34.3355 23.8271C34.3355 17.7135 37.4166 14.2574 42.0372 14.2574C46.6577 14.2574 49.7388 17.7112 49.7388 23.8271C49.7388 24.8814 49.6418 25.8518 49.4653 26.745C48.8831 31.2928 47.1253 39.5591 42.0372 39.5591C51.1393 39.5591 57.0214 33.538 57.0214 23.8271C57.0214 14.1163 51.1393 8.09741 42.0372 8.09741Z" fill="url(#paint11_linear_325_1717)"/>
<path d="M14.2803 19.7711C16.3557 22.4155 18.1069 24.2218 17.8621 30.6421C17.8621 32.2764 16.2741 33.3968 13.9407 33.3968C11.8873 33.3968 10.5795 32.5565 9.13264 31.7162C8.24603 31.2023 7.63951 30.8759 6.98447 30.8759C5.44502 30.8759 3.94968 32.8829 3.94968 34.5172C3.94968 35.5913 4.60252 36.4316 5.81775 37.2719C7.87109 38.7187 10.8132 39.559 13.8943 39.559C20.1955 39.559 25.0917 36.1007 24.8646 30.2694C24.5602 22.4971 18.1378 21.8002 14.2825 19.7733L14.2803 19.7711Z" fill="url(#paint12_linear_325_1717)"/>
<path d="M15.4074 20.2255C12.7388 19.147 11.1993 18.32 11.1861 16.8246C11.1861 16.8246 8.80411 8.94212 13.654 8.22974C8.04762 8.63996 4.07329 12.1181 4.18577 17.1974C4.40632 27.2391 19.3994 24.1778 17.4343 31.9875C18.2966 30.6841 18.8524 29.5129 19.1833 28.4609C20.2199 25.1659 19.492 21.873 15.4074 20.2233V20.2255Z" fill="url(#paint13_linear_325_1717)"/>
<path d="M11.6298 18.0664C11.6298 18.0664 10.2425 14.5022 14.7792 14.3501C16.365 14.2971 17.6729 14.9103 19.1682 15.6579C20.196 16.1718 20.7077 16.4056 21.2215 16.4056C22.8558 16.4056 24.21 14.3986 24.21 12.8106C24.21 11.7365 23.6498 11.0374 22.3905 10.2434C20.3835 8.98184 17.6751 8.19006 14.7814 8.19006C14.3977 8.19006 14.0227 8.2033 13.6544 8.23197C8.8045 8.94435 8.83097 14.3765 11.632 18.0686L11.6298 18.0664Z" fill="url(#paint14_linear_325_1717)"/>
<path d="M120.227 32.9292C119.014 33.2556 117.848 33.3968 116.773 33.3968C111.824 33.3968 108.37 30.3157 108.37 23.8734C108.37 23.8734 106.114 8.37524 116.213 8.37524C107.671 8.37524 101.09 13.8361 101.09 24.0123C101.09 34.1886 107.61 39.3914 116.054 39.548C120.684 39.3892 120.229 32.927 120.229 32.927L120.227 32.9292Z" fill="url(#paint15_linear_325_1717)"/>
<path d="M82.9179 37.9887C82.9179 38.4408 82.7723 38.7937 82.3886 39.0628C81.9475 39.3848 81.1932 39.5568 79.9978 39.5568C77.4593 39.5568 76.5925 38.7738 75.3618 36.9786L73.2533 33.9394C73.185 33.8423 73.1056 33.7144 72.9931 33.5534C72.8586 33.3483 72.6887 33.1013 72.4858 32.8234C72.4175 32.7263 72.3403 32.6183 72.2609 32.5124C70.9177 30.6973 69.601 28.8799 67.7153 29.4842C67.7153 27.336 69.1246 26.8332 71.7426 26.6038C75.0222 26.3171 77.2475 29.6959 77.2475 29.6959L80.869 34.4643C82.3467 36.4294 82.9223 37.1704 82.9223 37.9865L82.9179 37.9887Z" fill="url(#paint16_linear_325_1717)"/>
<path d="M71.2313 23.8624C78.7013 23.2228 79.6431 12.6738 76.5377 9.93457C81.8729 12.0144 83.6968 17.4421 81.6854 22.9625C78.1345 32.7021 64.8132 25.0732 63.6002 34.2437C63.3002 32.5301 63.3752 31.3303 63.3752 30.0687C63.3752 24.6873 68.0156 24.0896 71.2335 23.8624H71.2313Z" fill="url(#paint17_linear_325_1717)"/>
<path d="M74.1646 22.9625C76.2003 22.0472 76.9524 17.0429 73.1457 15.4086C71.2909 14.6124 67.7444 14.7425 66.2226 15.0094C64.6809 14.4536 64.1428 13.0509 64.7648 11.324C65.186 10.1551 65.9888 9.58385 67.4908 9.14936C69.8793 8.46124 72.7465 8.52079 75.4769 9.50445C75.8386 9.63458 76.1871 9.77794 76.5245 9.93232C80.9532 13.1061 78.5669 20.7768 74.1646 22.9603V22.9625Z" fill="url(#paint18_linear_325_1717)"/>
<path d="M67.6294 14.8749C67.6294 14.8749 67.3162 8.72815 69.8658 8.72815C67.8632 8.72815 65.3026 8.96193 63.9043 9.38098C61.0172 10.2191 60.9709 12.1291 60.9709 13.9442V36.7646C60.9709 38.6283 62.0891 39.559 64.3696 39.559C66.6501 39.559 67.7683 38.6283 67.7683 36.7646V29.6386L67.6294 23.9109V14.8771V14.8749Z" fill="url(#paint19_linear_325_1717)"/>
<defs>
<linearGradient id="paint0_linear_325_1717" x1="113.829" y1="27.8875" x2="126.901" y2="27.8875" gradientUnits="userSpaceOnUse">
<stop stop-color="#9DC43C"/>
<stop offset="0.14" stop-color="#97C03B"/>
<stop offset="0.32" stop-color="#87B63A"/>
<stop offset="0.51" stop-color="#6EA439"/>
<stop offset="0.73" stop-color="#498D37"/>
<stop offset="0.95" stop-color="#1C6E35"/>
<stop offset="0.99" stop-color="#126835"/>
</linearGradient>
<linearGradient id="paint1_linear_325_1717" x1="121.479" y1="29.2219" x2="121.479" y2="40.9728" gradientUnits="userSpaceOnUse">
<stop offset="0.05" stop-color="#52BF9D"/>
<stop offset="0.22" stop-color="#48B492"/>
<stop offset="0.51" stop-color="#2E9777"/>
<stop offset="0.89" stop-color="#04684A"/>
<stop offset="0.93" stop-color="#006346"/>
</linearGradient>
<linearGradient id="paint2_linear_325_1717" x1="108.159" y1="15.6093" x2="129.551" y2="17.967" gradientUnits="userSpaceOnUse">
<stop offset="0.11" stop-color="#52BF9D"/>
<stop offset="0.24" stop-color="#48B492"/>
<stop offset="0.47" stop-color="#2E9777"/>
<stop offset="0.76" stop-color="#04684A"/>
<stop offset="0.79" stop-color="#006346"/>
</linearGradient>
<linearGradient id="paint3_linear_325_1717" x1="92.4643" y1="39.5569" x2="92.4643" y2="11.5491" gradientUnits="userSpaceOnUse">
<stop offset="0.05" stop-color="#52BF9D"/>
<stop offset="0.22" stop-color="#48B492"/>
<stop offset="0.51" stop-color="#2E9777"/>
<stop offset="0.89" stop-color="#04684A"/>
<stop offset="0.93" stop-color="#006346"/>
</linearGradient>
<linearGradient id="paint4_linear_325_1717" x1="88.9178" y1="13.6972" x2="96.013" y2="13.6972" gradientUnits="userSpaceOnUse">
<stop stop-color="#A6CE39"/>
<stop offset="0.13" stop-color="#A0CA38"/>
<stop offset="0.29" stop-color="#90BF38"/>
<stop offset="0.47" stop-color="#77AE37"/>
<stop offset="0.67" stop-color="#529635"/>
<stop offset="0.87" stop-color="#257734"/>
<stop offset="0.99" stop-color="#076333"/>
</linearGradient>
<linearGradient id="paint5_linear_325_1717" x1="135.525" y1="39.5569" x2="135.525" y2="11.5491" gradientUnits="userSpaceOnUse">
<stop offset="0.05" stop-color="#52BF9D"/>
<stop offset="0.22" stop-color="#48B492"/>
<stop offset="0.51" stop-color="#2E9777"/>
<stop offset="0.89" stop-color="#04684A"/>
<stop offset="0.93" stop-color="#006346"/>
</linearGradient>
<linearGradient id="paint6_linear_325_1717" x1="131.977" y1="-104.913" x2="139.072" y2="-104.913" gradientUnits="userSpaceOnUse">
<stop stop-color="#A6CE39"/>
<stop offset="0.13" stop-color="#A0CA38"/>
<stop offset="0.29" stop-color="#90BF38"/>
<stop offset="0.47" stop-color="#77AE37"/>
<stop offset="0.67" stop-color="#529635"/>
<stop offset="0.87" stop-color="#257734"/>
<stop offset="0.99" stop-color="#076333"/>
</linearGradient>
<linearGradient id="paint7_linear_325_1717" x1="147.373" y1="39.5569" x2="147.373" y2="11.9417" gradientUnits="userSpaceOnUse">
<stop stop-color="#076333"/>
<stop offset="0.13" stop-color="#257734"/>
<stop offset="0.33" stop-color="#529635"/>
<stop offset="0.53" stop-color="#77AE37"/>
<stop offset="0.71" stop-color="#90BF38"/>
<stop offset="0.87" stop-color="#A0CA38"/>
<stop offset="1" stop-color="#A6CE39"/>
</linearGradient>
<linearGradient id="paint8_linear_325_1717" x1="161.349" y1="33.3594" x2="147.104" y2="8.52528" gradientUnits="userSpaceOnUse">
<stop offset="0.05" stop-color="#52BF9D"/>
<stop offset="0.22" stop-color="#48B492"/>
<stop offset="0.51" stop-color="#2E9777"/>
<stop offset="0.89" stop-color="#04684A"/>
<stop offset="0.93" stop-color="#006346"/>
</linearGradient>
<linearGradient id="paint9_linear_325_1717" x1="166.162" y1="10.2985" x2="166.162" y2="41.1051" gradientUnits="userSpaceOnUse">
<stop stop-color="#A6CE39"/>
<stop offset="0.13" stop-color="#A0CA38"/>
<stop offset="0.29" stop-color="#90BF38"/>
<stop offset="0.47" stop-color="#77AE37"/>
<stop offset="0.67" stop-color="#529635"/>
<stop offset="0.87" stop-color="#257734"/>
<stop offset="0.99" stop-color="#076333"/>
</linearGradient>
<linearGradient id="paint10_linear_325_1717" x1="38.2593" y1="39.8193" x2="38.2593" y2="8.27826" gradientUnits="userSpaceOnUse">
<stop offset="0.05" stop-color="#52BF9D"/>
<stop offset="0.22" stop-color="#48B492"/>
<stop offset="0.51" stop-color="#2E9777"/>
<stop offset="0.89" stop-color="#04684A"/>
<stop offset="0.93" stop-color="#006346"/>
</linearGradient>
<linearGradient id="paint11_linear_325_1717" x1="37.8356" y1="35.9486" x2="52.6082" y2="10.3581" gradientUnits="userSpaceOnUse">
<stop stop-color="#076333"/>
<stop offset="0.13" stop-color="#257734"/>
<stop offset="0.33" stop-color="#529635"/>
<stop offset="0.53" stop-color="#77AE37"/>
<stop offset="0.71" stop-color="#90BF38"/>
<stop offset="0.87" stop-color="#A0CA38"/>
<stop offset="1" stop-color="#A6CE39"/>
</linearGradient>
<linearGradient id="paint12_linear_325_1717" x1="22.0967" y1="35.1215" x2="8.08282" y2="27.0317" gradientUnits="userSpaceOnUse">
<stop stop-color="#076333"/>
<stop offset="0.13" stop-color="#257734"/>
<stop offset="0.33" stop-color="#529635"/>
<stop offset="0.53" stop-color="#77AE37"/>
<stop offset="0.71" stop-color="#90BF38"/>
<stop offset="0.87" stop-color="#A0CA38"/>
<stop offset="1" stop-color="#A6CE39"/>
</linearGradient>
<linearGradient id="paint13_linear_325_1717" x1="7.77635" y1="10.7705" x2="14.1767" y2="25.929" gradientUnits="userSpaceOnUse">
<stop offset="0.07" stop-color="#006346"/>
<stop offset="0.11" stop-color="#04684A"/>
<stop offset="0.49" stop-color="#2E9777"/>
<stop offset="0.78" stop-color="#48B492"/>
<stop offset="0.95" stop-color="#52BF9D"/>
</linearGradient>
<linearGradient id="paint14_linear_325_1717" x1="13.2464" y1="15.8233" x2="22.2625" y2="7.86144" gradientUnits="userSpaceOnUse">
<stop stop-color="#A6CE39"/>
<stop offset="0.13" stop-color="#A0CA38"/>
<stop offset="0.29" stop-color="#90BF38"/>
<stop offset="0.47" stop-color="#77AE37"/>
<stop offset="0.67" stop-color="#529635"/>
<stop offset="0.87" stop-color="#257734"/>
<stop offset="0.99" stop-color="#076333"/>
</linearGradient>
<linearGradient id="paint15_linear_325_1717" x1="110.664" y1="39.5502" x2="110.664" y2="8.37524" gradientUnits="userSpaceOnUse">
<stop stop-color="#A6CE39"/>
<stop offset="0.13" stop-color="#A0CA38"/>
<stop offset="0.29" stop-color="#90BF38"/>
<stop offset="0.47" stop-color="#77AE37"/>
<stop offset="0.67" stop-color="#529635"/>
<stop offset="0.87" stop-color="#257734"/>
<stop offset="0.99" stop-color="#076333"/>
</linearGradient>
<linearGradient id="paint16_linear_325_1717" x1="79.4817" y1="40.7412" x2="71.0324" y2="26.0105" gradientUnits="userSpaceOnUse">
<stop stop-color="#A6CE39"/>
<stop offset="0.13" stop-color="#A0CA38"/>
<stop offset="0.29" stop-color="#90BF38"/>
<stop offset="0.47" stop-color="#77AE37"/>
<stop offset="0.67" stop-color="#529635"/>
<stop offset="0.87" stop-color="#257734"/>
<stop offset="0.99" stop-color="#076333"/>
</linearGradient>
<linearGradient id="paint17_linear_325_1717" x1="68.4655" y1="27.3401" x2="88.6312" y2="10.9973" gradientUnits="userSpaceOnUse">
<stop offset="0.05" stop-color="#52BF9D"/>
<stop offset="0.22" stop-color="#48B492"/>
<stop offset="0.51" stop-color="#2E9777"/>
<stop offset="0.89" stop-color="#04684A"/>
<stop offset="0.93" stop-color="#006346"/>
</linearGradient>
<linearGradient id="paint18_linear_325_1717" x1="75.2092" y1="19.6563" x2="67.7523" y2="8.00832" gradientUnits="userSpaceOnUse">
<stop stop-color="#A6CE39"/>
<stop offset="0.13" stop-color="#A0CA38"/>
<stop offset="0.29" stop-color="#90BF38"/>
<stop offset="0.47" stop-color="#77AE37"/>
<stop offset="0.67" stop-color="#529635"/>
<stop offset="0.87" stop-color="#257734"/>
<stop offset="0.99" stop-color="#076333"/>
</linearGradient>
<linearGradient id="paint19_linear_325_1717" x1="65.4172" y1="39.5568" x2="65.4172" y2="8.72594" gradientUnits="userSpaceOnUse">
<stop offset="0.07" stop-color="#006346"/>
<stop offset="0.11" stop-color="#04684A"/>
<stop offset="0.49" stop-color="#2E9777"/>
<stop offset="0.78" stop-color="#48B492"/>
<stop offset="0.95" stop-color="#52BF9D"/>
</linearGradient>
</defs>
</svg>
